# 3ds Max Wavefront OBJ Exporter v0.99 - (c)2007 guruware
# File Created: 20.05.2020 19:47:53

mtllib direction.mtl

#
# object Box001
#

v  -0.0750 -0.0488 0.1250
v  -0.0750 -0.0488 -0.1250
v  0.0750 -0.0488 -0.1250
v  0.0750 -0.0488 0.1250
v  -0.0750 0.0012 0.1250
v  0.0750 0.0012 0.1250
v  0.0750 0.0012 -0.1250
v  -0.0750 0.0012 -0.1250
# 8 vertices

vn -0.5774 -0.5774 0.5774
vn -0.5774 -0.5774 -0.5774
vn 0.5774 -0.5774 -0.5774
vn 0.5774 -0.5774 0.5774
vn -0.5774 0.5774 0.5774
vn 0.5774 0.5774 0.5774
vn 0.5774 0.5774 -0.5774
vn -0.5774 0.5774 -0.5774
# 8 vertex normals

vt 1.0000 0.0000 0.0000
vt 1.0000 1.0000 0.0000
vt 0.0000 1.0000 0.0000
vt 0.0000 0.0000 0.0000
# 4 texture coords

o Box001
g Box001
usemtl wire_006135006
s 2
f 1/1/1 2/2/2 3/3/3 4/4/4 
s 4
f 5/4/5 6/1/6 7/2/7 8/3/8 
s 8
f 1/4/1 4/1/4 6/2/6 5/3/5 
s 16
f 4/4/4 3/1/3 7/2/7 6/3/6 
s 32
f 3/4/3 2/1/2 8/2/8 7/3/7 
s 64
f 2/4/2 1/1/1 5/2/5 8/3/8 
# 6 polygons

#
# object Pyramid001
#

v  -0.0000 -0.0256 -0.3682
v  0.1500 -0.0006 -0.1182
v  0.1500 -0.0506 -0.1182
v  -0.1500 -0.0506 -0.1182
v  -0.1500 -0.0006 -0.1182
v  0.0000 -0.0256 -0.1182
# 6 vertices

vn -0.0000 0.0000 -1.0000
vn 0.7150 0.5768 0.3951
vn 0.7150 -0.5768 0.3951
vn -0.7150 -0.5768 0.3951
vn -0.7150 0.5768 0.3951
vn 0.0000 0.0000 1.0000
# 6 vertex normals

vt 0.5000 1.0000 0.0000
vt 0.0000 0.0000 0.0000
vt 1.0000 0.0000 0.0000
vt 0.0000 1.0000 0.0000
vt 0.5000 0.5000 0.0000
vt 1.0000 1.0000 0.0000
# 6 texture coords

o Pyramid001
g Pyramid001
usemtl wire_006135006
s 4
f 9/5/9 10/6/10 11/7/11 
s 2
f 9/5/9 11/6/11 12/7/12 
s 16
f 9/5/9 12/6/12 13/7/13 
s 32
f 9/5/9 13/6/13 10/7/10 
s 8
f 10/8/10 14/9/14 11/10/11 
f 11/10/11 14/9/14 12/7/12 
f 12/7/12 14/9/14 13/6/13 
f 13/6/13 14/9/14 10/8/10 
# 0 polygons - 8 triangles

